<svg width="250" height="250" xmlns="http://www.w3.org/2000/svg" xmlns:xlink="http://www.w3.org/1999/xlink"><defs><circle id="a" cx="72.8" cy="72.8" r="72.8"/></defs><g fill="none" fill-rule="evenodd"><g transform="translate(53.8 59.2)"><mask id="b" fill="#fff"><use xlink:href="#a"/></mask><use fill="#013BD4" xlink:href="#a"/><path fill="#000" mask="url(#b)" d="M.714 39.376H12v17.165H.714zM91.3 15h30.5v141.52H91.3zM135.792 41.397v12.737l4.808-4.545 10.597-10.213z"/></g><path fill="#241773" d="M82.1 58.55h89v148h-89z"/><path fill="#F7F7F7" d="M86.6 66.5h80v131h-80z"/><path fill-opacity=".04" fill="#000" d="M166.6 66.5v131h-80z"/><g transform="translate(93.6 131.35)"><path fill="#013BD4" d="M0 0h29v23.497H0z"/><circle fill="#FF4949" cx="21.128" cy="6.082" r="2.967"/><path fill="#241773" d="m0 19.543 11.616-5.373 5.607 3.2 7.347-6.125 4.571 4.733v7.519H0z"/></g><g transform="translate(130.6 131.35)"><path fill="#D8D8D8" d="M0 0h29v23.497H0z"/><circle fill="#B4B4B4" cx="21.128" cy="6.082" r="2.967"/><path fill="#B4B4B4" d="m0 19.543 11.616-5.373 5.607 3.2 7.347-6.125 4.571 4.733v7.519H0z"/></g><g transform="translate(130.6 161.731)"><path fill="#D8D8D8" d="M0 0h29v23.497H0z"/><circle fill="#B4B4B4" cx="21.128" cy="6.082" r="2.967"/><path fill="#B4B4B4" d="m0 19.543 11.616-5.373 5.607 3.2 7.347-6.125 4.571 4.733v7.519H0z"/></g><g transform="translate(93.6 161.731)"><path fill="#D8D8D8" d="M0 0h29v23.497H0z"/><circle fill="#B4B4B4" cx="21.128" cy="6.082" r="2.967"/><path fill="#B4B4B4" d="m0 19.543 11.616-5.373 5.607 3.2 7.347-6.125 4.571 4.733v7.519H0z"/></g><path d="M99.324 102.15c2.208 0 3.112-1.398 3.16-2.377h-1.972c-.054.453-.547.763-1.195.763-.763 0-1.324-.527-1.324-1.35v-.331h4.538v-.797c0-2.107-1.35-3.39-3.302-3.39-1.837 0-3.329 1.128-3.329 3.39v.682c0 2.255 1.378 3.41 3.424 3.41Zm1.148-4.517h-2.479v-.04c0-.818.514-1.365 1.256-1.365.743 0 1.223.547 1.223 1.364v.04Zm5.807 4.382V98.03c0-.966.513-1.526 1.262-1.526.581 0 1.128.31 1.128 1.323v4.187h2.154v-4.76c0-1.716-.939-2.56-2.384-2.56-1.35 0-1.938.797-2.12 1.35h-.101v-1.242h-2.093v7.212h2.154Zm9.507.02c.506 0 1.006-.047 1.168-.08v-1.567a7.291 7.291 0 0 1-.648.027c-.662 0-.972-.216-.972-.844v-3.026h1.58v-1.634h-1.58V93.13h-2.08v1.782h-1.148v1.634h1.1v3.417c0 1.506.737 2.073 2.58 2.073Zm5.807.115c2.208 0 3.113-1.398 3.16-2.377h-1.971c-.055.453-.547.763-1.196.763-.763 0-1.323-.527-1.323-1.35v-.331h4.537v-.797c0-2.107-1.35-3.39-3.301-3.39-1.837 0-3.33 1.128-3.33 3.39v.682c0 2.255 1.378 3.41 3.424 3.41Zm1.148-4.517h-2.478v-.04c0-.818.513-1.365 1.256-1.365s1.222.547 1.222 1.364v.04Zm5.915 4.382v-3.89c0-.965.5-1.593 1.607-1.593.318 0 .642.027.79.081v-1.85c-.135-.04-.344-.068-.648-.068-1.047 0-1.58.757-1.708 1.25h-.102v-1.142h-2.154v7.212h2.215Zm7.056.02c.507 0 1.006-.047 1.169-.08v-1.567a7.291 7.291 0 0 1-.649.027c-.661 0-.972-.216-.972-.844v-3.026h1.58v-1.634h-1.58V93.13h-2.08v1.782h-1.148v1.634h1.101v3.417c0 1.506.736 2.073 2.58 2.073Zm4.734.088c1.06 0 1.64-.5 1.884-.993h.101v.885h2.019v-4.788c0-1.877-1.377-2.532-3.086-2.532-2.215 0-2.984 1.141-3.038 2.303h2.019c.054-.412.37-.716.985-.716.608 0 1 .297 1 .871v.601h-1.682c-1.674 0-2.586.858-2.586 2.168 0 1.377.973 2.201 2.384 2.201Zm.743-1.526c-.52 0-1.007-.284-1.007-.844 0-.48.358-.817 1.034-.817h1.114v.702c0 .567-.534.959-1.141.959Zm6.306-6.766c.777 0 1.283-.432 1.283-1.087s-.513-1.094-1.283-1.094c-.77 0-1.283.432-1.283 1.094 0 .655.52 1.087 1.283 1.087Zm1.08 8.184v-7.212h-2.153v7.212h2.154Zm4.18 0V98.03c0-.966.514-1.526 1.263-1.526.58 0 1.128.31 1.128 1.323v4.187h2.154v-4.76c0-1.716-.939-2.56-2.384-2.56-1.35 0-1.938.797-2.12 1.35h-.101v-1.242H150.6v7.212h2.154Z" fill="#013BD4" fill-rule="nonzero"/><path d="M78.968 212.668 93.6 206.55c7.885-1.637 10.317-2.635 7.297-2.995 1.52-.908 2.615-1.938 3.285-3.088 1.004-1.726-.233-7.755-5.006-6.643 2.876-3.248 3.471-5.778 1.785-7.59-1.686-1.811-5.198-2.184-10.536-1.119l16.885-22.497c3.42-5.381 3.4-9.147-.056-11.298l-33.666 33.689-2.163-13.514c-1.724-3.84-4.557-5.4-8.498-4.68l-3.82 36.595 14.48-1.364 5.381 10.622Z" fill="#000"/><path d="m74.478 240.065 28.703-33.419c.83-3.7-.264-5.731-3.284-6.091 1.52-.908 2.615-1.938 3.285-3.088 1.004-1.726-.233-7.755-5.006-6.643 2.876-3.248 3.471-5.778 1.785-7.59-1.686-1.811-5.198-2.184-10.536-1.119l16.885-22.497c3.42-5.381 3.4-9.147-.056-11.298l-33.666 33.689-2.163-13.514c-1.724-3.84-4.557-5.4-8.498-4.68l-3.82 36.595-12.531 14.552 28.902 25.103Z" fill="#F2560A"/><path fill="#4A1301" d="M49.996 96.335h14v17h-14z"/><path fill="#F3560A" d="M49.996 96.335h9.038v17h-9.038z"/><path fill-opacity=".202" fill="#000" d="m49.996 96.334 9.037 17h-9.037z"/><path d="m49.996 96.334-6.253-10.348c-3.783 6.33-5.675 12.614-5.675 18.848 0 6.235 1.892 12.454 5.675 18.659l6.253-10.159v-17Z" fill="#F3560A"/><path d="m45.024 102.347-1.857 2.392 1.857 1.867v8.539a.2.2 0 0 1-.36.118c-2.598-3.513-3.896-7.021-3.896-10.524 0-3.502 1.298-7.002 3.895-10.497a.2.2 0 0 1 .36.119v7.986Z" fill="#4A1301"/><path d="M30.778 97.263c-1.594 2.524-2.39 5.048-2.39 7.571 0 2.524.796 5.047 2.39 7.57M22.033 90.919c-2.84 4.5-4.261 9-4.261 13.5s1.42 9 4.261 13.5M10.64 85.919c-3.893 6.166-5.84 12.333-5.84 18.5 0 6.166 1.947 12.333 5.84 18.5" stroke="#4A1301" stroke-linecap="round"/><g stroke="#013BD4" stroke-linecap="square" stroke-width="3.024"><path d="M189.18 181.55h7.296M191.628 179.75l-1.944 10.8h6.792M194.28 188.727v12.624M189.576 198.23l6.9-1.38M208.218 180.704l-6.498.847.002 19.805M201.996 188.99h7.464M207.72 189.843v11.508"/></g><path fill="#F2560A" d="M188.4 81.9h14v30l-7-6.938-7 6.938z"/><path fill="#4A1301" d="M202.4 81.9v30l-7-6.938-7 6.938z"/><path fill="#241773" d="M106.89 64.011h39.421v7H106.89z"/></g></svg>